<svg width="200" height="33" viewBox="0 0 200 33" fill="none" xmlns="http://www.w3.org/2000/svg">
<path fill-rule="evenodd" clip-rule="evenodd" d="M51.5 11.1956C50.9481 11.4394 50.355 11.6056 49.7325 11.6788C50.3675 11.2981 50.8556 10.695 51.085 9.97687C50.4919 10.3287 49.8325 10.585 49.1319 10.7244C48.57 10.1262 47.7694 9.75 46.8856 9.75C45.1863 9.75 43.8069 11.1294 43.8069 12.8287C43.8069 13.0706 43.8337 13.305 43.8875 13.5294C41.3294 13.4025 39.0612 12.1769 37.545 10.3137C37.2787 10.7681 37.1275 11.2981 37.1275 11.8619C37.1275 12.9287 37.6694 13.8713 38.4969 14.4231C37.9919 14.4056 37.5181 14.2694 37.1031 14.0369C37.1031 14.0519 37.1031 14.0637 37.1031 14.0763C37.1031 15.5681 38.1625 16.8131 39.5712 17.0938C39.3125 17.1644 39.0412 17.2038 38.7606 17.2038C38.5631 17.2038 38.3675 17.1844 38.1819 17.1475C38.5725 18.3706 39.7106 19.2594 41.0556 19.2862C40.0031 20.1112 38.675 20.6019 37.235 20.6019C36.9856 20.6019 36.7419 20.5875 36.5 20.5581C37.8625 21.4325 39.4787 21.9425 41.2169 21.9425C46.8781 21.9425 49.9744 17.2525 49.9744 13.185C49.9744 13.0531 49.9694 12.9188 49.9644 12.7869C50.565 12.3525 51.0875 11.8106 51.5 11.1956Z" fill="white"/>
<mask id="mask0_1_266" style="mask-type:alpha" maskUnits="userSpaceOnUse" x="68" y="8" width="16" height="16">
<path d="M78.1609 23.5V18.0516H80.0085L80.2844 15.9801H78.1609V14.6385C78.1609 14.027 78.3269 13.6127 79.2144 13.6127H80.375V11.7039C80.179 11.6793 79.4934 11.625 78.7122 11.625C77.0806 11.625 75.978 12.6164 75.978 14.4166V15.9801H74.125V18.0516H75.9775L75.9739 23.5H69.75C69.0664 23.5 68.5 22.9336 68.5 22.25V9.75C68.5 9.06641 69.0664 8.5 69.75 8.5H82.25C82.9336 8.5 83.5 9.06641 83.5 9.75V22.25C83.5 22.9336 82.9336 23.5 82.25 23.5H78.1609Z" fill="white"/>
</mask>
<g mask="url(#mask0_1_266)">
<path d="M78.1609 23.5V18.0516H80.0085L80.2844 15.9801H78.1609V14.6385C78.1609 14.027 78.3269 13.6127 79.2144 13.6127H80.375V11.7039C80.179 11.6793 79.4934 11.625 78.7122 11.625C77.0806 11.625 75.978 12.6164 75.978 14.4166V15.9801H74.125V18.0516H75.9775L75.9739 23.5H69.75C69.0664 23.5 68.5 22.9336 68.5 22.25V9.75C68.5 9.06641 69.0664 8.5 69.75 8.5H82.25C82.9336 8.5 83.5 9.06641 83.5 9.75V22.25C83.5 22.9336 82.9336 23.5 82.25 23.5H78.1609Z" fill="white"/>
</g>
<path fill-rule="evenodd" clip-rule="evenodd" d="M100.5 12.8286C100.5 10.438 102.438 8.5 104.829 8.5H111.171C113.562 8.5 115.5 10.4379 115.5 12.8286V19.1714C115.5 21.562 113.562 23.5 111.171 23.5H104.829C102.438 23.5 100.5 21.5621 100.5 19.1714V12.8286ZM101.858 12.9577V19.0423C101.858 20.7569 103.246 22.1422 104.958 22.1422H111.042C112.757 22.1422 114.142 20.7544 114.142 19.0423V12.9577C114.142 11.2431 112.754 9.85776 111.042 9.85776H104.958C103.243 9.85776 101.858 11.2456 101.858 12.9577ZM108 19.8147C105.893 19.8147 104.185 18.1068 104.185 16C104.185 13.8932 105.893 12.1853 108 12.1853C110.107 12.1853 111.815 13.8932 111.815 16C111.815 18.1068 110.107 19.8147 108 19.8147ZM108 18.4569C109.357 18.4569 110.457 17.3569 110.457 16C110.457 14.6431 109.357 13.5431 108 13.5431C106.643 13.5431 105.543 14.6431 105.543 16C105.543 17.3569 106.643 18.4569 108 18.4569ZM111.944 12.8966C111.444 12.8966 111.039 12.4913 111.039 11.9914C111.039 11.4915 111.444 11.0862 111.944 11.0862C112.444 11.0862 112.849 11.4915 112.849 11.9914C112.849 12.4913 112.444 12.8966 111.944 12.8966Z" fill="white"/>
<mask id="mask1_1_266" style="mask-type:alpha" maskUnits="userSpaceOnUse" x="132" y="8" width="16" height="16">
<path d="M140 8.5C135.857 8.5 132.5 11.8569 132.5 16C132.5 19.1787 134.478 21.8911 137.268 22.9849C137.202 22.3916 137.141 21.481 137.292 20.8315C137.429 20.248 138.171 17.1035 138.171 17.1035C138.171 17.1035 137.949 16.6543 137.949 15.9902C137.949 14.9478 138.552 14.1689 139.304 14.1689C139.944 14.1689 140.254 14.6499 140.254 15.2261C140.254 15.8706 139.844 16.8325 139.631 17.7236C139.456 18.4707 140.007 19.0786 140.742 19.0786C142.075 19.0786 143.101 17.6724 143.101 15.6436C143.101 13.8491 141.812 12.5942 139.968 12.5942C137.834 12.5942 136.582 14.1934 136.582 15.8486C136.582 16.4932 136.831 17.1841 137.141 17.5601C137.202 17.6333 137.209 17.6992 137.192 17.7749C137.134 18.0117 137.009 18.522 136.985 18.6245C136.951 18.7637 136.875 18.793 136.733 18.7246C135.796 18.29 135.21 16.9204 135.21 15.8193C135.21 13.4536 136.929 11.2808 140.166 11.2808C142.769 11.2808 144.79 13.1338 144.79 15.6143C144.79 18.1973 143.159 20.2773 140.898 20.2773C140.139 20.2773 139.424 19.8843 139.18 19.418C139.18 19.418 138.804 20.8486 138.711 21.2002C138.542 21.8521 138.086 22.6675 137.778 23.1655C138.481 23.3828 139.226 23.5 140 23.5C144.143 23.5 147.5 20.1431 147.5 16C147.5 11.8569 144.143 8.5 140 8.5Z" fill="white"/>
</mask>
<g mask="url(#mask1_1_266)">
<path d="M140 8.5C135.857 8.5 132.5 11.8569 132.5 16C132.5 19.1787 134.478 21.8911 137.268 22.9849C137.202 22.3916 137.141 21.481 137.292 20.8315C137.429 20.248 138.171 17.1035 138.171 17.1035C138.171 17.1035 137.949 16.6543 137.949 15.9902C137.949 14.9478 138.552 14.1689 139.304 14.1689C139.944 14.1689 140.254 14.6499 140.254 15.2261C140.254 15.8706 139.844 16.8325 139.631 17.7236C139.456 18.4707 140.007 19.0786 140.742 19.0786C142.075 19.0786 143.101 17.6724 143.101 15.6436C143.101 13.8491 141.812 12.5942 139.968 12.5942C137.834 12.5942 136.582 14.1934 136.582 15.8486C136.582 16.4932 136.831 17.1841 137.141 17.5601C137.202 17.6333 137.209 17.6992 137.192 17.7749C137.134 18.0117 137.009 18.522 136.985 18.6245C136.951 18.7637 136.875 18.793 136.733 18.7246C135.796 18.29 135.21 16.9204 135.21 15.8193C135.21 13.4536 136.929 11.2808 140.166 11.2808C142.769 11.2808 144.79 13.1338 144.79 15.6143C144.79 18.1973 143.159 20.2773 140.898 20.2773C140.139 20.2773 139.424 19.8843 139.18 19.418C139.18 19.418 138.804 20.8486 138.711 21.2002C138.542 21.8521 138.086 22.6675 137.778 23.1655C138.481 23.3828 139.226 23.5 140 23.5C144.143 23.5 147.5 20.1431 147.5 16C147.5 11.8569 144.143 8.5 140 8.5Z" fill="white"/>
</g>
<mask id="mask2_1_266" style="mask-type:alpha" maskUnits="userSpaceOnUse" x="163" y="9" width="18" height="14">
<path d="M172 9.75C174.354 9.75 176.434 9.99438 177.703 10.18C178.753 10.3338 179.6 11.1244 179.793 12.1719C179.959 13.0656 180.125 14.3719 180.125 16C180.125 17.6281 179.956 18.9344 179.793 19.8281C179.6 20.8756 178.753 21.6687 177.703 21.82C176.429 22.0056 174.341 22.25 172 22.25C169.659 22.25 167.571 22.0056 166.297 21.82C165.247 21.6687 164.4 20.8756 164.207 19.8281C164.044 18.9369 163.875 17.6331 163.875 16C163.875 14.3669 164.044 13.0631 164.207 12.1719C164.4 11.1244 165.247 10.3338 166.297 10.18C167.566 9.99438 169.646 9.75 172 9.75ZM170.125 12.4256V19.5744L171.062 19.0469L175.438 16.5469L176.375 16L175.438 15.4531L171.062 12.9531L170.125 12.4256Z" fill="white"/>
</mask>
<g mask="url(#mask2_1_266)">
<path d="M172 9.75C174.354 9.75 176.434 9.99438 177.703 10.18C178.753 10.3338 179.6 11.1244 179.793 12.1719C179.959 13.0656 180.125 14.3719 180.125 16C180.125 17.6281 179.956 18.9344 179.793 19.8281C179.6 20.8756 178.753 21.6687 177.703 21.82C176.429 22.0056 174.341 22.25 172 22.25C169.659 22.25 167.571 22.0056 166.297 21.82C165.247 21.6687 164.4 20.8756 164.207 19.8281C164.044 18.9369 163.875 17.6331 163.875 16C163.875 14.3669 164.044 13.0631 164.207 12.1719C164.4 11.1244 165.247 10.3338 166.297 10.18C167.566 9.99438 169.646 9.75 172 9.75ZM170.125 12.4256V19.5744L171.062 19.0469L175.438 16.5469L176.375 16L175.438 15.4531L171.062 12.9531L170.125 12.4256Z" fill="white"/>
</g>
</svg>
