<svg width="164" height="28" viewBox="0 0 164 28" fill="none" xmlns="http://www.w3.org/2000/svg">
<path fill-rule="evenodd" clip-rule="evenodd" d="M32.75 9.67606C32.2533 9.89544 31.7195 10.0451 31.1593 10.1109C31.7308 9.76831 32.1701 9.2255 32.3765 8.57919C31.8427 8.89587 31.2493 9.1265 30.6187 9.25194C30.113 8.71363 29.3924 8.375 28.5971 8.375C27.0676 8.375 25.8262 9.61644 25.8262 11.1459C25.8262 11.3636 25.8504 11.5745 25.8987 11.7764C23.5964 11.6623 21.5551 10.5592 20.1905 8.88238C19.9509 9.29131 19.8148 9.76831 19.8148 10.2757C19.8148 11.2359 20.3024 12.0841 21.0472 12.5808C20.5927 12.5651 20.1663 12.4424 19.7928 12.2332C19.7928 12.2467 19.7928 12.2574 19.7928 12.2686C19.7928 13.6113 20.7462 14.7318 22.0141 14.9844C21.7812 15.0479 21.5371 15.0834 21.2846 15.0834C21.1068 15.0834 20.9308 15.0659 20.7637 15.0328C21.1152 16.1336 22.1396 16.9334 23.3501 16.9576C22.4028 17.7001 21.2075 18.1417 19.9115 18.1417C19.6871 18.1417 19.4677 18.1287 19.25 18.1023C20.4763 18.8892 21.9309 19.3482 23.4952 19.3482C28.5903 19.3482 31.3769 15.1273 31.3769 11.4665C31.3769 11.3478 31.3724 11.2269 31.3679 11.1082C31.9085 10.7173 32.3787 10.2296 32.75 9.67606Z" fill="white"/>
<path fill-rule="evenodd" clip-rule="evenodd" d="M75.25 11.1457C75.25 8.99416 76.9941 7.25 79.1457 7.25H84.8543C87.0058 7.25 88.75 8.99415 88.75 11.1457V16.8543C88.75 19.0058 87.0059 20.75 84.8543 20.75H79.1457C76.9942 20.75 75.25 19.0059 75.25 16.8543V11.1457ZM76.472 11.2619V16.7381C76.472 18.2812 77.7211 19.528 79.2619 19.528H84.7381C86.2812 19.528 87.528 18.2789 87.528 16.7381V11.2619C87.528 9.71876 86.2789 8.47198 84.7381 8.47198H79.2619C77.7188 8.47198 76.472 9.72107 76.472 11.2619ZM82 17.4332C80.1039 17.4332 78.5668 15.8961 78.5668 14C78.5668 12.1039 80.1039 10.5668 82 10.5668C83.8961 10.5668 85.4332 12.1039 85.4332 14C85.4332 15.8961 83.8961 17.4332 82 17.4332ZM82 16.2112C83.2212 16.2112 84.2112 15.2212 84.2112 14C84.2112 12.7788 83.2212 11.7888 82 11.7888C80.7788 11.7888 79.7888 12.7788 79.7888 14C79.7888 15.2212 80.7788 16.2112 82 16.2112ZM85.5496 11.2069C85.0996 11.2069 84.7349 10.8422 84.7349 10.3922C84.7349 9.94232 85.0996 9.57759 85.5496 9.57759C85.9995 9.57759 86.3642 9.94232 86.3642 10.3922C86.3642 10.8422 85.9995 11.2069 85.5496 11.2069Z" fill="white"/>
<mask id="mask0_1_12" style="mask-type:alpha" maskUnits="userSpaceOnUse" x="130" y="8" width="16" height="12">
<path d="M138 8.375C140.118 8.375 141.99 8.59494 143.133 8.762C144.078 8.90038 144.84 9.61194 145.014 10.5547C145.163 11.3591 145.312 12.5347 145.312 14C145.312 15.4653 145.161 16.6409 145.014 17.4453C144.84 18.3881 144.078 19.1019 143.133 19.238C141.986 19.4051 140.107 19.625 138 19.625C135.893 19.625 134.014 19.4051 132.867 19.238C131.922 19.1019 131.16 18.3881 130.986 17.4453C130.839 16.6432 130.688 15.4698 130.688 14C130.688 12.5302 130.839 11.3568 130.986 10.5547C131.16 9.61194 131.922 8.90038 132.867 8.762C134.01 8.59494 135.882 8.375 138 8.375ZM136.312 10.7831V17.2169L137.156 16.7422L141.094 14.4922L141.938 14L141.094 13.5078L137.156 11.2578L136.312 10.7831Z" fill="white"/>
</mask>
<g mask="url(#mask0_1_12)">
<path d="M138 8.375C140.118 8.375 141.99 8.59494 143.133 8.762C144.078 8.90038 144.84 9.61194 145.014 10.5547C145.163 11.3591 145.312 12.5347 145.312 14C145.312 15.4653 145.161 16.6409 145.014 17.4453C144.84 18.3881 144.078 19.1019 143.133 19.238C141.986 19.4051 140.107 19.625 138 19.625C135.893 19.625 134.014 19.4051 132.867 19.238C131.922 19.1019 131.16 18.3881 130.986 17.4453C130.839 16.6432 130.688 15.4698 130.688 14C130.688 12.5302 130.839 11.3568 130.986 10.5547C131.16 9.61194 131.922 8.90038 132.867 8.762C134.01 8.59494 135.882 8.375 138 8.375ZM136.312 10.7831V17.2169L137.156 16.7422L141.094 14.4922L141.938 14L141.094 13.5078L137.156 11.2578L136.312 10.7831Z" fill="white"/>
</g>
<mask id="mask1_1_12" style="mask-type:alpha" maskUnits="userSpaceOnUse" x="47" y="7" width="14" height="14">
<path d="M55.9448 20.75V15.8464H57.6077L57.8559 13.9821H55.9448V12.7747C55.9448 12.2243 56.0942 11.8514 56.8929 11.8514H57.9375V10.1335C57.7611 10.1113 57.144 10.0625 56.441 10.0625C54.9725 10.0625 53.9802 10.9547 53.9802 12.5749V13.9821H52.3125V15.8464H53.9798L53.9765 20.75H48.375C47.7598 20.75 47.25 20.2402 47.25 19.625V8.375C47.25 7.75977 47.7598 7.25 48.375 7.25H59.625C60.2402 7.25 60.75 7.75977 60.75 8.375V19.625C60.75 20.2402 60.2402 20.75 59.625 20.75H55.9448Z" fill="white"/>
</mask>
<g mask="url(#mask1_1_12)">
<path d="M55.9448 20.75V15.8464H57.6077L57.8559 13.9821H55.9448V12.7747C55.9448 12.2243 56.0942 11.8514 56.8929 11.8514H57.9375V10.1335C57.7611 10.1113 57.144 10.0625 56.441 10.0625C54.9725 10.0625 53.9802 10.9547 53.9802 12.5749V13.9821H52.3125V15.8464H53.9798L53.9765 20.75H48.375C47.7598 20.75 47.25 20.2402 47.25 19.625V8.375C47.25 7.75977 47.7598 7.25 48.375 7.25H59.625C60.2402 7.25 60.75 7.75977 60.75 8.375V19.625C60.75 20.2402 60.2402 20.75 59.625 20.75H55.9448Z" fill="white"/>
</g>
<mask id="mask2_1_12" style="mask-type:alpha" maskUnits="userSpaceOnUse" x="103" y="7" width="14" height="14">
<path d="M110 7.25C106.271 7.25 103.25 10.2712 103.25 14C103.25 16.8608 105.03 19.302 107.541 20.2864C107.482 19.7524 107.427 18.9329 107.563 18.3484C107.686 17.8232 108.354 14.9932 108.354 14.9932C108.354 14.9932 108.154 14.5889 108.154 13.9912C108.154 13.053 108.697 12.3521 109.374 12.3521C109.949 12.3521 110.229 12.7849 110.229 13.3035C110.229 13.8835 109.859 14.7493 109.668 15.5513C109.51 16.2236 110.007 16.7708 110.668 16.7708C111.868 16.7708 112.791 15.5051 112.791 13.6792C112.791 12.0642 111.63 10.9348 109.971 10.9348C108.051 10.9348 106.924 12.374 106.924 13.8638C106.924 14.4438 107.148 15.0657 107.427 15.4041C107.482 15.47 107.489 15.5293 107.473 15.5974C107.42 15.8105 107.308 16.2698 107.286 16.3621C107.256 16.4873 107.188 16.5137 107.06 16.4521C106.216 16.061 105.689 14.8284 105.689 13.8374C105.689 11.7083 107.236 9.75269 110.149 9.75269C112.492 9.75269 114.311 11.4204 114.311 13.6528C114.311 15.9775 112.843 17.8496 110.809 17.8496C110.125 17.8496 109.481 17.4958 109.262 17.0762C109.262 17.0762 108.923 18.3638 108.84 18.6802C108.688 19.2668 108.277 20.0007 108 20.449C108.633 20.6445 109.303 20.75 110 20.75C113.729 20.75 116.75 17.7288 116.75 14C116.75 10.2712 113.729 7.25 110 7.25Z" fill="white"/>
</mask>
<g mask="url(#mask2_1_12)">
<path d="M110 7.25C106.271 7.25 103.25 10.2712 103.25 14C103.25 16.8608 105.03 19.302 107.541 20.2864C107.482 19.7524 107.427 18.9329 107.563 18.3484C107.686 17.8232 108.354 14.9932 108.354 14.9932C108.354 14.9932 108.154 14.5889 108.154 13.9912C108.154 13.053 108.697 12.3521 109.374 12.3521C109.949 12.3521 110.229 12.7849 110.229 13.3035C110.229 13.8835 109.859 14.7493 109.668 15.5513C109.51 16.2236 110.007 16.7708 110.668 16.7708C111.868 16.7708 112.791 15.5051 112.791 13.6792C112.791 12.0642 111.63 10.9348 109.971 10.9348C108.051 10.9348 106.924 12.374 106.924 13.8638C106.924 14.4438 107.148 15.0657 107.427 15.4041C107.482 15.47 107.489 15.5293 107.473 15.5974C107.42 15.8105 107.308 16.2698 107.286 16.3621C107.256 16.4873 107.188 16.5137 107.06 16.4521C106.216 16.061 105.689 14.8284 105.689 13.8374C105.689 11.7083 107.236 9.75269 110.149 9.75269C112.492 9.75269 114.311 11.4204 114.311 13.6528C114.311 15.9775 112.843 17.8496 110.809 17.8496C110.125 17.8496 109.481 17.4958 109.262 17.0762C109.262 17.0762 108.923 18.3638 108.84 18.6802C108.688 19.2668 108.277 20.0007 108 20.449C108.633 20.6445 109.303 20.75 110 20.75C113.729 20.75 116.75 17.7288 116.75 14C116.75 10.2712 113.729 7.25 110 7.25Z" fill="white"/>
</g>
</svg>
